<svg id="Camada_1" data-name="Camada 1" xmlns="http://www.w3.org/2000/svg" xmlns:xlink="http://www.w3.org/1999/xlink" viewBox="0 0 1043.84 248.73"><defs><style>.cls-1{fill:none;}.cls-2{font-size:270.49px;font-family:AntipastoPro, Antipasto Pro;}.cls-2,.cls-41{fill:#fff;}.cls-3{letter-spacing:-0.01em;}.cls-4{letter-spacing:0em;}.cls-5{clip-path:url(#clip-path);}.cls-6{fill:url(#Gradiente_sem_nome_72);}.cls-7{fill:url(#Gradiente_sem_nome_72-2);}.cls-8{fill:url(#Gradiente_sem_nome_72-3);}.cls-9{fill:url(#Gradiente_sem_nome_72-4);}.cls-10{fill:url(#Gradiente_sem_nome_72-5);}.cls-11{fill:url(#Gradiente_sem_nome_72-6);}.cls-12{fill:url(#Gradiente_sem_nome_72-7);}.cls-13{fill:url(#Gradiente_sem_nome_72-8);}.cls-14{fill:url(#Gradiente_sem_nome_72-9);}.cls-15{fill:url(#Gradiente_sem_nome_72-10);}.cls-16{fill:url(#Gradiente_sem_nome_72-11);}.cls-17{fill:url(#Gradiente_sem_nome_72-12);}.cls-18{fill:url(#Gradiente_sem_nome_72-13);}.cls-19{fill:url(#Gradiente_sem_nome_72-14);}.cls-20{fill:url(#Gradiente_sem_nome_98);}.cls-21{fill:url(#Gradiente_sem_nome_72-15);}.cls-22{fill:url(#Gradiente_sem_nome_72-16);}.cls-23{fill:url(#Gradiente_sem_nome_72-17);}.cls-24{fill:url(#Gradiente_sem_nome_72-18);}.cls-25{fill:url(#Gradiente_sem_nome_72-19);}.cls-26{fill:url(#Gradiente_sem_nome_72-20);}.cls-27{fill:url(#Gradiente_sem_nome_72-21);}.cls-28{fill:url(#Gradiente_sem_nome_72-22);}.cls-29{fill:url(#Gradiente_sem_nome_72-23);}.cls-30{fill:url(#Gradiente_sem_nome_72-24);}.cls-31{fill:url(#Gradiente_sem_nome_72-25);}.cls-32{fill:url(#Gradiente_sem_nome_72-26);}.cls-33{fill:url(#Gradiente_sem_nome_72-27);}.cls-34{fill:url(#Gradiente_sem_nome_102);}.cls-35{fill:url(#Gradiente_sem_nome_72-28);}.cls-36{fill:url(#Gradiente_sem_nome_72-29);}.cls-37{fill:url(#Gradiente_sem_nome_72-30);}.cls-38{fill:url(#Gradiente_sem_nome_72-31);}.cls-39{fill:url(#Gradiente_sem_nome_72-32);}.cls-40{fill:url(#Gradiente_sem_nome_102-2);}.cls-41{font-size:30.45px;font-family:Lato-Medium, Lato;font-weight:500;letter-spacing:0.51em;}.cls-42{letter-spacing:0.52em;}.cls-43{letter-spacing:0.51em;}.cls-44{letter-spacing:0.52em;}.cls-45{letter-spacing:0.45em;}.cls-46{letter-spacing:0.52em;}.cls-47{letter-spacing:0.49em;}.cls-48{letter-spacing:0.45em;}.cls-49{letter-spacing:0.47em;}.cls-50{letter-spacing:0.5em;}.cls-51{letter-spacing:0.49em;}.cls-52{letter-spacing:0.5em;}.cls-53{letter-spacing:0.5em;}</style><clipPath id="clip-path"><path class="cls-1" d="M1032.51,85.07c-2.27-16.23-9.49-29-23.66-36.9l0-.09-.13,0c-1.13-.62-2.29-1.21-3.5-1.77-9.61-4.41-19.16-4.84-28.64.7a18.43,18.43,0,0,1-2.67,1.5c-10.76,5-25.63.26-27-.46-15.76-8.18-31.86-5.31-44.2,7.62-11.42,12-15.14,26.66-14.2,42.49,1.34,22.68,8.88,43.17,23.88,60.65l.29.33,0,.1v-.05a.94.94,0,0,0,.1.1c11.24,12.86,22.14,15.56,37.83,8.48a23.18,23.18,0,0,1,13.75-2.08,25.64,25.64,0,0,1,6.2,1.92c17.46,7.82,27.4,5.27,40.58-11.17a85.74,85.74,0,0,0,8.25-14.24l1-2.53c.07-.21.15-.42.22-.62l.11-.21a120.76,120.76,0,0,0,8.07-20.07C1031.85,109,1034.14,96.75,1032.51,85.07Zm-82.7,48.64.17,0,.57.2A3.35,3.35,0,0,1,949.81,133.71Zm76.84-9.46,2.1-5.27A22.39,22.39,0,0,1,1026.65,124.25Z"/></clipPath><linearGradient id="Gradiente_sem_nome_72" x1="919.26" y1="22.11" x2="996.44" y2="187.4" gradientUnits="userSpaceOnUse"><stop offset="0" stop-color="#98c11c"/><stop offset="1" stop-color="#168737"/></linearGradient><linearGradient id="Gradiente_sem_nome_72-2" x1="866.44" y1="46.77" x2="906.02" y2="131.53" xlink:href="#Gradiente_sem_nome_72"/><linearGradient id="Gradiente_sem_nome_72-3" x1="925.43" y1="19.23" x2="1002.61" y2="184.52" xlink:href="#Gradiente_sem_nome_72"/><linearGradient id="Gradiente_sem_nome_72-4" x1="912.08" y1="25.46" x2="989.27" y2="190.75" xlink:href="#Gradiente_sem_nome_72"/><linearGradient id="Gradiente_sem_nome_72-5" x1="882.67" y1="39.19" x2="959.85" y2="204.49" xlink:href="#Gradiente_sem_nome_72"/><linearGradient id="Gradiente_sem_nome_72-6" x1="864.49" y1="47.68" x2="941.67" y2="212.98" xlink:href="#Gradiente_sem_nome_72"/><linearGradient id="Gradiente_sem_nome_72-7" x1="915.73" y1="23.76" x2="992.91" y2="189.05" xlink:href="#Gradiente_sem_nome_72"/><linearGradient id="Gradiente_sem_nome_72-8" x1="920.33" y1="21.61" x2="997.51" y2="186.9" xlink:href="#Gradiente_sem_nome_72"/><linearGradient id="Gradiente_sem_nome_72-9" x1="849.91" y1="54.49" x2="927.09" y2="219.79" xlink:href="#Gradiente_sem_nome_72"/><linearGradient id="Gradiente_sem_nome_72-10" x1="836.08" y1="60.95" x2="913.26" y2="226.24" xlink:href="#Gradiente_sem_nome_72"/><linearGradient id="Gradiente_sem_nome_72-11" x1="935.22" y1="14.65" x2="1012.41" y2="179.95" xlink:href="#Gradiente_sem_nome_72"/><linearGradient id="Gradiente_sem_nome_72-12" x1="837.06" y1="60.49" x2="914.24" y2="225.79" xlink:href="#Gradiente_sem_nome_72"/><linearGradient id="Gradiente_sem_nome_72-13" x1="855.57" y1="51.85" x2="932.75" y2="217.14" xlink:href="#Gradiente_sem_nome_72"/><linearGradient id="Gradiente_sem_nome_72-14" x1="863.48" y1="48.15" x2="940.66" y2="213.45" xlink:href="#Gradiente_sem_nome_72"/><linearGradient id="Gradiente_sem_nome_98" x1="965.49" y1="143.71" x2="1012.01" y2="70.99" gradientUnits="userSpaceOnUse"><stop offset="0" stop-color="#372359"/><stop offset="1" stop-color="#5d3087"/></linearGradient><linearGradient id="Gradiente_sem_nome_72-15" x1="836.47" y1="60.76" x2="913.66" y2="226.06" xlink:href="#Gradiente_sem_nome_72"/><linearGradient id="Gradiente_sem_nome_72-16" x1="858.25" y1="106.79" x2="913.88" y2="225.93" xlink:href="#Gradiente_sem_nome_72"/><linearGradient id="Gradiente_sem_nome_72-17" x1="857.85" y1="106.98" x2="913.48" y2="226.11" xlink:href="#Gradiente_sem_nome_72"/><linearGradient id="Gradiente_sem_nome_72-18" x1="966.63" y1="56.18" x2="1022.26" y2="175.32" xlink:href="#Gradiente_sem_nome_72"/><linearGradient id="Gradiente_sem_nome_72-19" x1="935.29" y1="70.81" x2="990.92" y2="189.95" xlink:href="#Gradiente_sem_nome_72"/><linearGradient id="Gradiente_sem_nome_72-20" x1="858.79" y1="106.54" x2="914.42" y2="225.67" xlink:href="#Gradiente_sem_nome_72"/><linearGradient id="Gradiente_sem_nome_72-21" x1="914.01" y1="80.75" x2="969.64" y2="199.89" xlink:href="#Gradiente_sem_nome_72"/><linearGradient id="Gradiente_sem_nome_72-22" x1="985.26" y1="168.74" x2="1003.54" y2="207.89" xlink:href="#Gradiente_sem_nome_72"/><linearGradient id="Gradiente_sem_nome_72-23" x1="955.49" y1="61.38" x2="1011.12" y2="180.52" xlink:href="#Gradiente_sem_nome_72"/><linearGradient id="Gradiente_sem_nome_72-24" x1="895.13" y1="33.37" x2="972.32" y2="198.67" xlink:href="#Gradiente_sem_nome_72"/><linearGradient id="Gradiente_sem_nome_72-25" x1="874.12" y1="94.15" x2="958.56" y2="159.83" xlink:href="#Gradiente_sem_nome_72"/><linearGradient id="Gradiente_sem_nome_72-26" x1="924.44" y1="19.24" x2="931.47" y2="34.3" xlink:href="#Gradiente_sem_nome_72"/><linearGradient id="Gradiente_sem_nome_72-27" x1="862.16" y1="107.99" x2="878.34" y2="142.63" xlink:href="#Gradiente_sem_nome_72"/><linearGradient id="Gradiente_sem_nome_102" x1="961.99" y1="116.73" x2="916.25" y2="72.55" gradientUnits="userSpaceOnUse"><stop offset="0" stop-color="#ee7f23"/><stop offset="1" stop-color="#f5b920"/></linearGradient><linearGradient id="Gradiente_sem_nome_72-28" x1="953.21" y1="94.39" x2="953.32" y2="94.64" xlink:href="#Gradiente_sem_nome_72"/><linearGradient id="Gradiente_sem_nome_72-29" x1="891.82" y1="91.45" x2="892.61" y2="93.15" xlink:href="#Gradiente_sem_nome_72"/><linearGradient id="Gradiente_sem_nome_72-30" x1="886.75" y1="97.1" x2="886.79" y2="97.19" xlink:href="#Gradiente_sem_nome_72"/><linearGradient id="Gradiente_sem_nome_72-31" x1="927.59" y1="76.3" x2="938.8" y2="100.32" xlink:href="#Gradiente_sem_nome_72"/><linearGradient id="Gradiente_sem_nome_72-32" x1="888.22" y1="95.22" x2="888.46" y2="95.74" xlink:href="#Gradiente_sem_nome_72"/><linearGradient id="Gradiente_sem_nome_102-2" x1="1549.13" y1="-503.75" x2="1579.43" y2="-503.75" gradientTransform="translate(-659.5 209.72) rotate(11.36)" xlink:href="#Gradiente_sem_nome_102"/></defs><title>logo</title><text class="cls-2" transform="translate(-6 168.8)">conec<tspan class="cls-3" x="662.41" y="0">t</tspan><tspan class="cls-4" x="732.06" y="0">a</tspan></text><g class="cls-5"><path class="cls-6" d="M952.63,93.87l.54.54Z"/><path class="cls-7" d="M888.89,94.9l0,0Z"/><path class="cls-8" d="M1010,179.42a93.34,93.34,0,0,1-15.36,8.8A91.06,91.06,0,0,0,1010,179.42Z"/><path class="cls-9" d="M990.17,190.08c-.68.27-1.37.53-2.07.79C988.8,190.62,989.48,190.35,990.17,190.08Z"/><path class="cls-10" d="M895.51,89.73c.78-.49,1.59-1,2.42-1.39a55.61,55.61,0,0,1,15.84-5.58,49.72,49.72,0,0,0-18.19,6.92Z"/><path class="cls-11" d="M887.78,96.05c-.32.34-.64.67-.94,1C887.14,96.72,887.47,96.39,887.78,96.05Z"/><path class="cls-12" d="M994.2,188.4c-.87.39-1.75.77-2.65,1.14C992.44,189.17,993.32,188.79,994.2,188.4Z"/><path class="cls-13" d="M961.77,109.61a31.75,31.75,0,0,0-8.41-15A35,35,0,0,1,961.77,109.61Z"/><path class="cls-14" d="M875.14,144.57s-4.31-29.08,11.56-47.34C870.4,115.74,875.14,144.57,875.14,144.57Z"/><path class="cls-15" d="M874.86,144.26q1.17,2.44,2.48,4.82a48.64,48.64,0,0,1-2.2-4.51C875.05,144.49,875,144.36,874.86,144.26Z"/><path class="cls-16" d="M1012.28,177.73l-1.35,1Z"/><path class="cls-17" d="M882.33,157.09c-.37-.54-.74-1.07-1.08-1.59C881.6,156,882,156.56,882.33,157.09Z"/><path class="cls-18" d="M882.66,157.54a91.13,91.13,0,0,0,62.2,37.85C911.13,189.91,892,170.71,882.66,157.54Z"/><path class="cls-19" d="M887.27,46.56A90.78,90.78,0,0,0,866,105.05c0,.38,0,.76,0,1.13A92.94,92.94,0,0,1,887.27,46.56Z"/><path class="cls-20" d="M961.77,109.61s-16.72,0-15.2,22.8,29.37,54.91,81,30.6A91.19,91.19,0,0,0,972.47,15.16C1041.9,80.25,961.77,109.61,961.77,109.61Z"/><path class="cls-21" d="M879.4,152.62c-.1-.15-.2-.32-.29-.47C879.21,152.31,879.3,152.47,879.4,152.62Z"/><path class="cls-22" d="M881.25,155.5c-.64-.95-1.25-1.9-1.85-2.88C880,153.53,880.57,154.49,881.25,155.5Z"/><path class="cls-23" d="M879.11,152.15c-.61-1-1.19-2-1.77-3.07C877.84,150,878.43,151,879.11,152.15Z"/><path class="cls-24" d="M1012.28,177.73A79.8,79.8,0,0,0,1027.62,163h0A91.75,91.75,0,0,1,1012.28,177.73Z"/><path class="cls-25" d="M991.55,189.54l-1.38.54Z"/><path class="cls-26" d="M882.66,157.54l-.33-.45Z"/><path class="cls-27" d="M944.86,195.39c2,.33,4.12.63,6.27.86a93.22,93.22,0,0,0,37-5.38,90.72,90.72,0,0,1-43.24,4.52Z"/><path class="cls-28" d="M994.6,188.22l-.4.18Z"/><path class="cls-29" d="M1010.93,178.73l-1,.69Z"/><path class="cls-30" d="M1027.62,163c-51.68,24.31-79.53-7.8-81-30.6s15.2-22.8,15.2-22.8a35,35,0,0,0-8.41-15l-.19-.21-.54-.54c-9.32-9-24-13.6-38.86-11.11a55.61,55.61,0,0,0-15.84,5.58c-.83.44-1.64.9-2.42,1.39a40.4,40.4,0,0,0-6.59,5.15l0,0c-.38.38-.74.77-1.11,1.15s-.64.67-.94,1a1.15,1.15,0,0,0-.14.17c-15.87,18.26-11.56,47.34-11.56,47.34a48.64,48.64,0,0,0,2.2,4.51c.58,1,1.16,2.06,1.77,3.07.09.15.19.32.29.47.6,1,1.21,1.93,1.85,2.88.34.52.71,1.05,1.08,1.59l.33.45c9.38,13.17,28.47,32.37,62.2,37.85a90.72,90.72,0,0,0,43.24-4.52c.7-.26,1.39-.52,2.07-.79l1.38-.54c.9-.37,1.78-.75,2.65-1.14l.4-.18a93.34,93.34,0,0,0,15.36-8.8l1-.69,1.35-1A91.75,91.75,0,0,0,1027.62,163Z"/><path class="cls-31" d="M1027.62,163c-51.68,24.31-79.53-7.8-81-30.6s15.2-22.8,15.2-22.8a35,35,0,0,0-8.41-15l-.19-.21-.54-.54c-9.32-9-24-13.6-38.86-11.11a55.61,55.61,0,0,0-15.84,5.58c-.83.44-1.64.9-2.42,1.39a40.4,40.4,0,0,0-6.59,5.15l0,0c-.38.38-.74.77-1.11,1.15s-.64.67-.94,1a1.15,1.15,0,0,0-.14.17c-15.87,18.26-11.56,47.34-11.56,47.34a48.64,48.64,0,0,0,2.2,4.51c.58,1,1.16,2.06,1.77,3.07.09.15.19.32.29.47.6,1,1.21,1.93,1.85,2.88.34.52.71,1.05,1.08,1.59l.33.45c9.38,13.17,28.47,32.37,62.2,37.85a90.72,90.72,0,0,0,43.24-4.52c.7-.26,1.39-.52,2.07-.79l1.38-.54c.9-.37,1.78-.75,2.65-1.14l.4-.18a93.34,93.34,0,0,0,15.36-8.8l1-.69,1.35-1A91.75,91.75,0,0,0,1027.62,163Z"/><path class="cls-32" d="M957,13.74c-17.57,0-46.77,4.85-69.57,32.67l-.11.15a91,91,0,0,1,85.2-31.4l0,0A76.52,76.52,0,0,0,957,13.74Z"/><path class="cls-33" d="M866.05,106.18c0,19.64,5.83,34.7,8.81,38.08a90.75,90.75,0,0,1-8.81-38.08Z"/><path class="cls-34" d="M886.7,97.23a1.15,1.15,0,0,1,.14-.17c.3-.34.62-.67.94-1s.73-.77,1.11-1.15l0,0a37.94,37.94,0,0,1,6.59-5.15l.07,0a49.72,49.72,0,0,1,18.19-6.92c15.52-2.89,29.74,1.93,38.86,11.11l.54.54.19.21a31.75,31.75,0,0,1,8.41,15s80.13-29.36,10.7-94.45a91,91,0,0,0-85.2,31.4,92.94,92.94,0,0,0-21.22,59.62,90.75,90.75,0,0,0,8.81,38.08c.09.1.19.23.28.31S870.4,115.74,886.7,97.23Z"/><path class="cls-35" d="M953.17,94.41l.09.09-.09-.09Zm.09.09.1.12-.1-.12Z"/><path class="cls-36" d="M895.51,89.73a37.94,37.94,0,0,0-6.59,5.15,40.4,40.4,0,0,1,6.59-5.15Z"/><path class="cls-37" d="M886.84,97.06l-.07.08.07-.08Zm-.07.08-.07.09.07-.09Z"/><path class="cls-38" d="M922.69,81.92a48.2,48.2,0,0,0-8.92.84,47.88,47.88,0,0,1,8.05-.67c12,0,23.18,4.41,30.81,11.78a42,42,0,0,0-29.94-12Z"/><path class="cls-39" d="M888.89,94.9l-.47.48.47-.48Zm-.47.48-.64.67.64-.67Z"/></g><path class="cls-40" d="M955.2,43s-2.88-32.75,34.24-38.55C989.44,4.41,999.78,37.72,955.2,43Z"/><text class="cls-41" transform="translate(7.69 237.55)">C<tspan class="cls-42" x="35.73" y="0">ON</tspan><tspan class="cls-43" x="115.2" y="0">E</tspan><tspan class="cls-44" x="148.16" y="0">C</tspan><tspan class="cls-45" x="184.32" y="0">T</tspan><tspan class="cls-46" x="216.11" y="0">ANDO</tspan><tspan class="cls-47" x="371.22" y="0"> </tspan><tspan class="cls-48" x="393.75" y="0">A</tspan><tspan class="cls-44" x="428.22" y="0">TR</tspan><tspan class="cls-49" x="497.2" y="0">A</tspan><tspan class="cls-46" x="532.14" y="0">VÉS </tspan><tspan class="cls-50" x="658.17" y="0">D</tspan><tspan class="cls-51" x="696.58" y="0">A</tspan><tspan class="cls-44" x="732.17" y="0" xml:space="preserve"> EDUC</tspan><tspan class="cls-52" x="902.66" y="0">A</tspan><tspan class="cls-44" x="938.68" y="0">Ç</tspan><tspan class="cls-53" x="974.83" y="0">Ã</tspan><tspan class="cls-44" x="1010.86" y="0">O</tspan></text></svg>