<?xml version="1.0" standalone="no"?>
<!DOCTYPE svg PUBLIC "-//W3C//DTD SVG 20010904//EN"
 "http://www.w3.org/TR/2001/REC-SVG-20010904/DTD/svg10.dtd">
<svg version="1.0" xmlns="http://www.w3.org/2000/svg"
 width="530.000000pt" height="530.000000pt" viewBox="0 0 530.000000 530.000000"
 preserveAspectRatio="xMidYMid meet">
<metadata>
Created by potrace 1.11, written by Peter Selinger 2001-2013
</metadata>
<g transform="translate(0.000000,530.000000) scale(0.100000,-0.100000)"
fill="#000000" stroke="none">
<path d="M3365 5046 c-238 -62 -419 -160 -559 -302 -54 -55 -86 -93 -86 -102
0 -6 -3 -12 -7 -14 -28 -12 -113 -177 -147 -286 -24 -75 -30 -100 -43 -172 -2
-14 -7 -71 -10 -127 l-5 -102 23 4 c13 3 41 7 61 10 117 15 323 70 381 101 15
8 27 12 27 8 0 -3 6 -1 13 5 8 6 17 8 20 4 4 -3 7 -1 7 5 0 7 5 12 11 12 15 0
159 86 195 117 60 50 108 100 144 148 42 56 104 165 94 165 -4 0 -2 6 4 13 41
51 70 300 50 421 -4 28 -11 66 -14 84 -4 28 -8 32 -37 32 -18 -1 -72 -12 -122
-24z"/>
<path d="M3496 3943 c-2 -2 -23 -6 -47 -8 -99 -9 -215 -53 -349 -131 -57 -33
-106 -51 -194 -70 -186 -39 -488 -6 -656 73 -81 38 -230 92 -270 98 -14 2 -47
9 -75 14 -27 6 -111 9 -185 7 -155 -4 -256 -28 -395 -95 -152 -73 -246 -148
-415 -330 -31 -34 -118 -158 -141 -201 -13 -25 -27 -47 -31 -50 -11 -8 -84
-181 -106 -250 -27 -88 -59 -240 -68 -325 -16 -159 -5 -461 22 -630 25 -159
57 -313 81 -386 8 -25 16 -55 18 -65 2 -10 4 -20 5 -21 2 -2 3 -6 4 -10 10
-43 64 -188 97 -261 16 -35 29 -67 29 -70 0 -8 72 -151 106 -211 43 -77 166
-266 175 -269 5 -2 9 -10 9 -18 0 -8 4 -14 8 -14 4 0 16 -13 25 -30 10 -16 23
-35 30 -42 7 -8 36 -43 66 -78 260 -311 520 -433 822 -386 55 9 212 56 226 68
7 6 13 8 13 5 0 -4 30 8 68 24 113 52 196 71 307 71 55 1 111 -2 125 -5 25 -5
111 -32 140 -44 8 -4 17 -7 20 -8 3 -1 28 -12 55 -24 28 -13 55 -24 60 -25 6
-2 22 -8 36 -14 30 -12 102 -32 139 -38 14 -3 33 -7 42 -10 50 -15 158 -19
240 -10 144 18 294 103 448 256 53 52 110 111 127 131 34 40 143 196 143 204
0 3 15 29 33 58 42 67 133 252 142 287 0 3 22 50 49 104 26 55 59 127 72 160
14 34 29 70 34 81 13 30 58 167 62 190 2 11 6 22 10 25 9 7 72 226 83 287 2
16 9 53 15 83 6 30 13 69 15 85 3 17 7 41 9 53 26 128 24 413 -4 587 -19 117
-21 130 -27 145 -3 8 -7 20 -8 25 -2 6 -9 30 -16 55 -7 25 -13 47 -14 50 -4
23 -65 166 -88 210 -74 137 -132 215 -243 326 -60 60 -231 194 -247 194 -3 0
-31 15 -64 33 -54 30 -194 91 -233 102 -37 9 -114 26 -145 31 -44 7 -184 12
-189 7z"/>
</g>
</svg>
