<?xml version="1.0" encoding="utf-8"?>
<!-- Generator: Adobe Illustrator 23.1.1, SVG Export Plug-In . SVG Version: 6.00 Build 0)  -->
<svg version="1.1" id="Camada_1" xmlns="http://www.w3.org/2000/svg" xmlns:xlink="http://www.w3.org/1999/xlink" x="0px" y="0px"
	 viewBox="0 0 256 265" style="enable-background:new 0 0 256 265;" xml:space="preserve">
<style type="text/css">
	.st0{clip-path:url(#SVGID_2_);}
	.st1{fill:url(#SVGID_3_);}
	.st2{fill:url(#SVGID_4_);}
	.st3{fill:url(#SVGID_5_);}
	.st4{fill:url(#SVGID_6_);}
	.st5{fill:url(#SVGID_7_);}
	.st6{fill:url(#SVGID_8_);}
	.st7{fill:url(#SVGID_9_);}
	.st8{fill:url(#SVGID_10_);}
	.st9{fill:url(#SVGID_11_);}
	.st10{fill:url(#SVGID_12_);}
	.st11{fill:url(#SVGID_13_);}
	.st12{fill:url(#SVGID_14_);}
	.st13{fill:url(#SVGID_15_);}
	.st14{fill:url(#SVGID_16_);}
	.st15{fill:url(#SVGID_17_);}
	.st16{fill:url(#SVGID_18_);}
	.st17{fill:url(#SVGID_19_);}
	.st18{fill:url(#SVGID_20_);}
	.st19{fill:url(#SVGID_21_);}
	.st20{fill:url(#SVGID_22_);}
	.st21{fill:url(#SVGID_23_);}
	.st22{fill:url(#SVGID_24_);}
	.st23{fill:url(#SVGID_25_);}
	.st24{fill:url(#SVGID_26_);}
	.st25{fill:url(#SVGID_27_);}
	.st26{fill:url(#SVGID_28_);}
	.st27{fill:url(#SVGID_29_);}
	.st28{fill:url(#SVGID_30_);}
	.st29{fill:url(#SVGID_31_);}
	.st30{fill:url(#SVGID_32_);}
	.st31{fill:url(#SVGID_33_);}
	.st32{fill:url(#SVGID_34_);}
	.st33{fill:url(#SVGID_35_);}
	.st34{fill:url(#SVGID_36_);}
	.st35{fill:url(#SVGID_37_);}
</style>
<title>logo</title>
<g>
	<defs>
		<path id="SVGID_1_" d="M234.5,129.5c-3.3-23.8-13.9-42.5-34.7-54.1v-0.1h-0.2c-1.7-0.9-3.4-1.8-5.1-2.6c-14.1-6.5-28.1-7.1-42,1
			c-1.2,0.8-2.6,1.6-3.9,2.2c-15.8,7.3-37.6,0.4-39.6-0.7c-23.1-12-46.7-7.8-64.8,11.2c-16.8,17.6-22.2,39.1-20.8,62.3
			c2,33.3,13,63.3,35,89l0.4,0.5v0.1v-0.1c0,0.1,0.1,0.1,0.1,0.1c16.5,18.9,32.5,22.8,55.5,12.4c6.3-3.1,13.3-4.1,20.2-3.1
			c3.1,0.5,6.2,1.5,9.1,2.8c25.6,11.5,40.2,7.7,59.5-16.4c4.7-6.6,8.7-13.6,12.1-20.9l1.5-3.7c0.1-0.3,0.2-0.6,0.3-0.9l0.2-0.3
			c4.8-9.4,8.8-19.3,11.8-29.4C233.5,164.6,236.8,146.7,234.5,129.5z M113.1,200.9h0.2l0.8,0.3C113.9,201.1,113.5,201,113.1,200.9
			L113.1,200.9z M225.9,187l3.1-7.7C228.2,182,227.2,184.6,225.9,187z"/>
	</defs>
	<clipPath id="SVGID_2_">
		<use xlink:href="#SVGID_1_"  style="overflow:visible;"/>
	</clipPath>
	<g class="st0">
		
			<linearGradient id="SVGID_3_" gradientUnits="userSpaceOnUse" x1="68.3318" y1="288.4" x2="181.5528" y2="45.9239" gradientTransform="matrix(1 0 0 -1 0 325.5658)">
			<stop  offset="0" style="stop-color:#98C11C"/>
			<stop  offset="1" style="stop-color:#168737"/>
		</linearGradient>
		<path class="st1" d="M117.3,142.4l0.8,0.8L117.3,142.4z"/>
		
			<linearGradient id="SVGID_4_" gradientUnits="userSpaceOnUse" x1="23.7719" y1="181.6153" x2="23.7719" y2="181.6153" gradientTransform="matrix(1 0 0 -1 0 325.5658)">
			<stop  offset="0" style="stop-color:#98C11C"/>
			<stop  offset="1" style="stop-color:#168737"/>
		</linearGradient>
		<path class="st2" d="M23.8,144L23.8,144z"/>
		
			<linearGradient id="SVGID_5_" gradientUnits="userSpaceOnUse" x1="77.4196" y1="292.6419" x2="190.6406" y2="50.1658" gradientTransform="matrix(1 0 0 -1 0 325.5658)">
			<stop  offset="0" style="stop-color:#98C11C"/>
			<stop  offset="1" style="stop-color:#168737"/>
		</linearGradient>
		<path class="st3" d="M201.4,267.9c-7.1,5-14.6,9.3-22.5,12.9C186.8,277.3,194.4,273,201.4,267.9z"/>
		
			<linearGradient id="SVGID_6_" gradientUnits="userSpaceOnUse" x1="57.7831" y1="283.4782" x2="171.0188" y2="41.0021" gradientTransform="matrix(1 0 0 -1 0 325.5658)">
			<stop  offset="0" style="stop-color:#98C11C"/>
			<stop  offset="1" style="stop-color:#168737"/>
		</linearGradient>
		<path class="st4" d="M172.3,283.6c-1,0.4-2,0.8-3,1.2C170.3,284.4,171.3,284,172.3,283.6z"/>
		
			<linearGradient id="SVGID_7_" gradientUnits="userSpaceOnUse" x1="14.6469" y1="263.3402" x2="127.8679" y2="20.8494" gradientTransform="matrix(1 0 0 -1 0 325.5658)">
			<stop  offset="0" style="stop-color:#98C11C"/>
			<stop  offset="1" style="stop-color:#168737"/>
		</linearGradient>
		<path class="st5" d="M33.5,136.4c1.1-0.7,2.3-1.5,3.6-2c7.3-3.9,15.1-6.6,23.2-8.2c-9.5,1.6-18.5,5-26.7,10.2L33.5,136.4z"/>
		
			<linearGradient id="SVGID_8_" gradientUnits="userSpaceOnUse" x1="-12.0196" y1="250.887" x2="101.2014" y2="8.3962" gradientTransform="matrix(1 0 0 -1 0 325.5658)">
			<stop  offset="0" style="stop-color:#98C11C"/>
			<stop  offset="1" style="stop-color:#168737"/>
		</linearGradient>
		<path class="st6" d="M22.1,145.6c-0.5,0.5-0.9,1-1.4,1.5C21.2,146.6,21.7,146.1,22.1,145.6z"/>
		
			<linearGradient id="SVGID_9_" gradientUnits="userSpaceOnUse" x1="63.1483" y1="285.9771" x2="176.3694" y2="43.501" gradientTransform="matrix(1 0 0 -1 0 325.5658)">
			<stop  offset="0" style="stop-color:#98C11C"/>
			<stop  offset="1" style="stop-color:#168737"/>
		</linearGradient>
		<path class="st7" d="M178.3,281.1c-1.3,0.6-2.6,1.1-3.9,1.7C175.7,282.2,177,281.7,178.3,281.1z"/>
		
			<linearGradient id="SVGID_10_" gradientUnits="userSpaceOnUse" x1="69.889" y1="289.1276" x2="183.11" y2="46.6515" gradientTransform="matrix(1 0 0 -1 0 325.5658)">
			<stop  offset="0" style="stop-color:#98C11C"/>
			<stop  offset="1" style="stop-color:#168737"/>
		</linearGradient>
		<path class="st8" d="M130.7,165.5c-2-8.3-6.3-15.9-12.3-22C124.2,149.7,128.5,157.3,130.7,165.5z"/>
		
			<linearGradient id="SVGID_11_" gradientUnits="userSpaceOnUse" x1="-33.4076" y1="240.8971" x2="79.8135" y2="-1.5936" gradientTransform="matrix(1 0 0 -1 0 325.5658)">
			<stop  offset="0" style="stop-color:#98C11C"/>
			<stop  offset="1" style="stop-color:#168737"/>
		</linearGradient>
		<path class="st9" d="M3.6,216.8c0,0-6.3-42.7,17-69.4C-3.4,174.5,3.6,216.8,3.6,216.8z"/>
		
			<linearGradient id="SVGID_12_" gradientUnits="userSpaceOnUse" x1="-53.706" y1="231.4157" x2="59.515" y2="-11.0604" gradientTransform="matrix(1 0 0 -1 0 325.5658)">
			<stop  offset="0" style="stop-color:#98C11C"/>
			<stop  offset="1" style="stop-color:#168737"/>
		</linearGradient>
		<path class="st10" d="M3.2,216.4c1.1,2.4,2.4,4.7,3.6,7.1c-1.2-2.1-2.3-4.4-3.2-6.6C3.5,216.7,3.4,216.5,3.2,216.4z"/>
		
			<linearGradient id="SVGID_13_" gradientUnits="userSpaceOnUse" x1="91.7347" y1="299.339" x2="204.9704" y2="56.8481" gradientTransform="matrix(1 0 0 -1 0 325.5658)">
			<stop  offset="0" style="stop-color:#98C11C"/>
			<stop  offset="1" style="stop-color:#168737"/>
		</linearGradient>
		<path class="st11" d="M204.8,265.5l-2,1.5L204.8,265.5z"/>
		
			<linearGradient id="SVGID_14_" gradientUnits="userSpaceOnUse" x1="-52.264" y1="232.0926" x2="60.9571" y2="-10.3982" gradientTransform="matrix(1 0 0 -1 0 325.5658)">
			<stop  offset="0" style="stop-color:#98C11C"/>
			<stop  offset="1" style="stop-color:#168737"/>
		</linearGradient>
		<path class="st12" d="M14.1,235.2c-0.5-0.8-1.1-1.6-1.6-2.3C13.1,233.6,13.7,234.4,14.1,235.2z"/>
		
			<linearGradient id="SVGID_15_" gradientUnits="userSpaceOnUse" x1="-25.1045" y1="244.77" x2="88.1166" y2="2.2938" gradientTransform="matrix(1 0 0 -1 0 325.5658)">
			<stop  offset="0" style="stop-color:#98C11C"/>
			<stop  offset="1" style="stop-color:#168737"/>
		</linearGradient>
		<path class="st13" d="M14.6,235.8c21.4,30.4,54.4,50.5,91.2,55.5C56.4,283.3,28.3,255.2,14.6,235.8z"/>
		
			<linearGradient id="SVGID_16_" gradientUnits="userSpaceOnUse" x1="-13.5294" y1="250.1844" x2="99.6917" y2="7.6936" gradientTransform="matrix(1 0 0 -1 0 325.5658)">
			<stop  offset="0" style="stop-color:#98C11C"/>
			<stop  offset="1" style="stop-color:#168737"/>
		</linearGradient>
		<path class="st14" d="M21.4,73c-20.2,24-31.2,54.4-31.2,85.8c0,0.6,0,1.1,0,1.7C-10,128.6,1.1,97.6,21.4,73z"/>
		
			<linearGradient id="SVGID_17_" gradientUnits="userSpaceOnUse" x1="136.1187" y1="110.0272" x2="204.3624" y2="216.7056" gradientTransform="matrix(1 0 0 -1 0 325.5658)">
			<stop  offset="0" style="stop-color:#372359"/>
			<stop  offset="1" style="stop-color:#5D3087"/>
		</linearGradient>
		<path class="st15" d="M130.7,165.5c0,0-24.5,0-22.3,33.4s43.1,80.6,118.8,44.9c47-57,38.8-141.3-18.3-188.3
			c-18-14.8-39.6-24.7-62.6-28.6C248.2,122.5,130.7,165.5,130.7,165.5z"/>
		
			<linearGradient id="SVGID_18_" gradientUnits="userSpaceOnUse" x1="-53.1281" y1="231.6972" x2="60.1076" y2="-10.7936" gradientTransform="matrix(1 0 0 -1 0 325.5658)">
			<stop  offset="0" style="stop-color:#98C11C"/>
			<stop  offset="1" style="stop-color:#168737"/>
		</linearGradient>
		<path class="st16" d="M9.9,228.6c-0.1-0.2-0.3-0.5-0.4-0.7C9.6,228.2,9.7,228.4,9.9,228.6z"/>
		
			<linearGradient id="SVGID_19_" gradientUnits="userSpaceOnUse" x1="-21.1723" y1="164.1748" x2="60.4355" y2="-10.6005" gradientTransform="matrix(1 0 0 -1 0 325.5658)">
			<stop  offset="0" style="stop-color:#98C11C"/>
			<stop  offset="1" style="stop-color:#168737"/>
		</linearGradient>
		<path class="st17" d="M12.6,232.8c-0.9-1.4-1.8-2.8-2.7-4.2C10.7,230,11.6,231.4,12.6,232.8z"/>
		
			<linearGradient id="SVGID_20_" gradientUnits="userSpaceOnUse" x1="-21.7644" y1="163.8935" x2="59.8434" y2="-10.8671" gradientTransform="matrix(1 0 0 -1 0 325.5658)">
			<stop  offset="0" style="stop-color:#98C11C"/>
			<stop  offset="1" style="stop-color:#168737"/>
		</linearGradient>
		<path class="st18" d="M9.4,227.9c-0.9-1.5-1.7-2.9-2.6-4.5C7.6,224.8,8.4,226.2,9.4,227.9z"/>
		
			<linearGradient id="SVGID_21_" gradientUnits="userSpaceOnUse" x1="137.8189" y1="238.4185" x2="219.4266" y2="63.6432" gradientTransform="matrix(1 0 0 -1 0 325.5658)">
			<stop  offset="0" style="stop-color:#98C11C"/>
			<stop  offset="1" style="stop-color:#168737"/>
		</linearGradient>
		<path class="st19" d="M204.8,265.5c8.4-6.2,16-13.4,22.5-21.6l0,0C220.6,251.9,213.1,259.2,204.8,265.5z"/>
		
			<linearGradient id="SVGID_22_" gradientUnits="userSpaceOnUse" x1="91.846" y1="216.9577" x2="173.4537" y2="42.1824" gradientTransform="matrix(1 0 0 -1 0 325.5658)">
			<stop  offset="0" style="stop-color:#98C11C"/>
			<stop  offset="1" style="stop-color:#168737"/>
		</linearGradient>
		<path class="st20" d="M174.4,282.8l-2,0.8L174.4,282.8z"/>
		
			<linearGradient id="SVGID_23_" gradientUnits="userSpaceOnUse" x1="-20.3905" y1="164.5367" x2="61.2173" y2="-10.224" gradientTransform="matrix(1 0 0 -1 0 325.5658)">
			<stop  offset="0" style="stop-color:#98C11C"/>
			<stop  offset="1" style="stop-color:#168737"/>
		</linearGradient>
		<path class="st21" d="M14.6,235.8l-0.5-0.7L14.6,235.8z"/>
		
			<linearGradient id="SVGID_24_" gradientUnits="userSpaceOnUse" x1="60.6361" y1="202.3794" x2="142.2439" y2="27.6041" gradientTransform="matrix(1 0 0 -1 0 325.5658)">
			<stop  offset="0" style="stop-color:#98C11C"/>
			<stop  offset="1" style="stop-color:#168737"/>
		</linearGradient>
		<path class="st22" d="M105.9,291.4c2.9,0.5,6,0.9,9.2,1.3c18.4,1.1,36.9-1.6,54.3-7.9C149.1,292.1,127.3,294.3,105.9,291.4
			L105.9,291.4z"/>
		
			<linearGradient id="SVGID_25_" gradientUnits="userSpaceOnUse" x1="165.147" y1="73.2952" x2="191.9632" y2="15.8632" gradientTransform="matrix(1 0 0 -1 0 325.5658)">
			<stop  offset="0" style="stop-color:#98C11C"/>
			<stop  offset="1" style="stop-color:#168737"/>
		</linearGradient>
		<path class="st23" d="M178.8,280.8l-0.6,0.3L178.8,280.8z"/>
		
			<linearGradient id="SVGID_26_" gradientUnits="userSpaceOnUse" x1="121.454" y1="230.7796" x2="203.0617" y2="56.0044" gradientTransform="matrix(1 0 0 -1 0 325.5658)">
			<stop  offset="0" style="stop-color:#98C11C"/>
			<stop  offset="1" style="stop-color:#168737"/>
		</linearGradient>
		<path class="st24" d="M202.8,266.9l-1.5,1L202.8,266.9z"/>
		
			<linearGradient id="SVGID_27_" gradientUnits="userSpaceOnUse" x1="32.9927" y1="271.9094" x2="146.2284" y2="29.4186" gradientTransform="matrix(1 0 0 -1 0 325.5658)">
			<stop  offset="0" style="stop-color:#98C11C"/>
			<stop  offset="1" style="stop-color:#168737"/>
		</linearGradient>
		<path class="st25" d="M227.3,243.9c-75.8,35.7-116.7-11.4-118.8-44.9c-2.2-33.4,22.3-33.4,22.3-33.4c-2.2-8.2-6.5-15.8-12.3-22
			l-0.3-0.3l-0.8-0.8c-13.7-13.2-35.2-20-57-16.3c-8.1,1.5-16,4.3-23.2,8.2c-1.2,0.6-2.4,1.3-3.6,2c-3.5,2.2-6.7,4.7-9.7,7.6l0,0
			c-0.6,0.6-1.1,1.1-1.6,1.7c-0.5,0.6-0.9,1-1.4,1.5c-0.1,0.1-0.1,0.2-0.2,0.2c-23.3,26.8-17,69.4-17,69.4c1,2.3,2,4.5,3.2,6.6
			c0.9,1.5,1.7,3,2.6,4.5c0.1,0.2,0.3,0.5,0.4,0.7c0.9,1.5,1.8,2.8,2.7,4.2c0.5,0.8,1,1.5,1.6,2.3l0.5,0.7
			c13.8,19.3,41.8,47.5,91.2,55.5c21.4,3,43.1,0.7,63.4-6.6c1-0.4,2-0.8,3-1.2l2-0.8c1.3-0.5,2.6-1.1,3.9-1.7l0.6-0.3
			c7.9-3.6,15.4-7.9,22.5-12.9l1.5-1l2-1.5C213.2,259.1,220.7,251.9,227.3,243.9z"/>
		
			<linearGradient id="SVGID_28_" gradientUnits="userSpaceOnUse" x1="2.169" y1="182.7981" x2="126.0403" y2="86.4473" gradientTransform="matrix(1 0 0 -1 0 325.5658)">
			<stop  offset="0" style="stop-color:#98C11C"/>
			<stop  offset="1" style="stop-color:#168737"/>
		</linearGradient>
		<path class="st26" d="M227.3,243.9c-75.8,35.7-116.7-11.4-118.8-44.9c-2.2-33.4,22.3-33.4,22.3-33.4c-2.2-8.2-6.5-15.8-12.3-22
			l-0.3-0.3l-0.8-0.8c-13.7-13.2-35.2-20-57-16.3c-8.1,1.5-16,4.3-23.2,8.2c-1.2,0.6-2.4,1.3-3.6,2c-3.5,2.2-6.7,4.7-9.7,7.6l0,0
			c-0.6,0.6-1.1,1.1-1.6,1.7c-0.5,0.6-0.9,1-1.4,1.5c-0.1,0.1-0.1,0.2-0.2,0.2c-23.3,26.8-17,69.4-17,69.4c1,2.3,2,4.5,3.2,6.6
			c0.9,1.5,1.7,3,2.6,4.5c0.1,0.2,0.3,0.5,0.4,0.7c0.9,1.5,1.8,2.8,2.7,4.2c0.5,0.8,1,1.5,1.6,2.3l0.5,0.7
			c13.8,19.3,41.8,47.5,91.2,55.5c21.4,3,43.1,0.7,63.4-6.6c1-0.4,2-0.8,3-1.2l2-0.8c1.3-0.5,2.6-1.1,3.9-1.7l0.6-0.3
			c7.9-3.6,15.4-7.9,22.5-12.9l1.5-1l2-1.5C213.2,259.1,220.7,251.9,227.3,243.9z"/>
		
			<linearGradient id="SVGID_29_" gradientUnits="userSpaceOnUse" x1="75.9901" y1="292.6379" x2="86.3033" y2="270.5444" gradientTransform="matrix(1 0 0 -1 0 325.5658)">
			<stop  offset="0" style="stop-color:#98C11C"/>
			<stop  offset="1" style="stop-color:#168737"/>
		</linearGradient>
		<path class="st27" d="M123.7,24.9c-25.8,0-68.6,7.1-102.1,47.9L21.5,73C51.9,36.5,99.6,19,146.5,27l0,0
			C139,25.5,131.3,24.8,123.7,24.9z"/>
		
			<linearGradient id="SVGID_30_" gradientUnits="userSpaceOnUse" x1="-15.4336" y1="162.4055" x2="8.3007" y2="111.5925" gradientTransform="matrix(1 0 0 -1 0 325.5658)">
			<stop  offset="0" style="stop-color:#98C11C"/>
			<stop  offset="1" style="stop-color:#168737"/>
		</linearGradient>
		<path class="st28" d="M-9.7,160.5c0,28.8,8.6,50.9,12.9,55.9C-5.1,198.9-9.5,179.8-9.7,160.5z"/>
		
			<linearGradient id="SVGID_31_" gradientUnits="userSpaceOnUse" x1="130.9171" y1="149.4974" x2="63.8177" y2="214.3083" gradientTransform="matrix(1 0 0 -1 0 325.5658)">
			<stop  offset="0" style="stop-color:#EE7F23"/>
			<stop  offset="1" style="stop-color:#F5B920"/>
		</linearGradient>
		<path class="st29" d="M20.6,147.4c0.1-0.1,0.1-0.2,0.2-0.2c0.4-0.5,0.9-1,1.4-1.5c0.5-0.5,1.1-1.1,1.6-1.7l0,0
			c2.9-2.9,6.2-5.4,9.7-7.6h0.1c8.1-5.1,17.2-8.6,26.7-10.2c22.8-4.2,43.6,2.8,57,16.3l0.8,0.8l0.3,0.3c6.1,6.1,10.3,13.7,12.3,22
			c0,0,117.5-43.1,15.7-138.6c-46.9-8-94.5,9.5-125,46.1C1.1,97.8-10,128.7-9.8,160.6C-9.6,180-5.2,199,3.1,216.5
			c0.1,0.1,0.3,0.3,0.4,0.5C3.7,217.1-3.4,174.5,20.6,147.4z"/>
		
			<linearGradient id="SVGID_32_" gradientUnits="userSpaceOnUse" x1="118.1277" y1="182.3634" x2="118.289" y2="181.9967" gradientTransform="matrix(1 0 0 -1 0 325.5658)">
			<stop  offset="0" style="stop-color:#98C11C"/>
			<stop  offset="1" style="stop-color:#168737"/>
		</linearGradient>
		<path class="st30" d="M118.1,143.2l0.1,0.1L118.1,143.2z M118.2,143.4l0.1,0.2L118.2,143.4z"/>
		
			<linearGradient id="SVGID_33_" gradientUnits="userSpaceOnUse" x1="28.0674" y1="186.675" x2="29.2262" y2="184.1812" gradientTransform="matrix(1 0 0 -1 0 325.5658)">
			<stop  offset="0" style="stop-color:#98C11C"/>
			<stop  offset="1" style="stop-color:#168737"/>
		</linearGradient>
		<path class="st31" d="M33.5,136.4c-3.5,2.2-6.7,4.7-9.7,7.6C26.8,141.1,30,138.5,33.5,136.4z"/>
		
			<linearGradient id="SVGID_34_" gradientUnits="userSpaceOnUse" x1="20.6326" y1="178.388" x2="20.6913" y2="178.2559" gradientTransform="matrix(1 0 0 -1 0 325.5658)">
			<stop  offset="0" style="stop-color:#98C11C"/>
			<stop  offset="1" style="stop-color:#168737"/>
		</linearGradient>
		<path class="st32" d="M20.8,147.1l-0.1,0.1L20.8,147.1z M20.7,147.2l-0.1,0.1L20.7,147.2z"/>
		
			<linearGradient id="SVGID_35_" gradientUnits="userSpaceOnUse" x1="80.5529" y1="208.8901" x2="96.9942" y2="173.6605" gradientTransform="matrix(1 0 0 -1 0 325.5658)">
			<stop  offset="0" style="stop-color:#98C11C"/>
			<stop  offset="1" style="stop-color:#168737"/>
		</linearGradient>
		<path class="st33" d="M73.4,124.9c-4.4,0-8.8,0.4-13.1,1.2c3.9-0.7,7.9-1,11.8-1c17.6,0,34,6.5,45.2,17.3
			C105.6,131,89.8,124.6,73.4,124.9L73.4,124.9z"/>
		
			<linearGradient id="SVGID_36_" gradientUnits="userSpaceOnUse" x1="22.7858" y1="181.1443" x2="23.1379" y2="180.3815" gradientTransform="matrix(1 0 0 -1 0 325.5658)">
			<stop  offset="0" style="stop-color:#98C11C"/>
			<stop  offset="1" style="stop-color:#168737"/>
		</linearGradient>
		<path class="st34" d="M23.8,144l-0.7,0.7L23.8,144z M23.1,144.7l-0.9,1L23.1,144.7z"/>
	</g>
</g>
<linearGradient id="SVGID_37_" gradientUnits="userSpaceOnUse" x1="876.092" y1="833.8722" x2="920.5282" y2="833.8722" gradientTransform="matrix(0.9804 0.197 0.197 -0.9804 -897.2824 680.4365)">
	<stop  offset="0" style="stop-color:#EE7F23"/>
	<stop  offset="1" style="stop-color:#F5B920"/>
</linearGradient>
<path class="st35" d="M121,67.8c0,0-4.2-48,50.2-56.6C171.3,11.2,186.4,60.1,121,67.8z"/>
</svg>
